# xmcd CD database file
#
# Track frame offsets:
#	150
#	13849
#	26103
#	39504
#	53517
#	65497
#	80560
#	89896
#	103453
#	116398
#	130864
#	145240
#	156049
#	169854
#	183292
#	196132
#	209867
#	220626
#	233960
#	248024
#
# Disc length: 3455 seconds
#
# Revision: 2
# Processed by: cddbd v1.5.1PL0 Copyright (c) Steve Scherf et al.
# Submitted via: CDex 1.50beta9
#
DISCID=220d7d14
DTITLE=Peggy Lee - While we're young - CD 1
DYEAR=1900
DGENRE=Vocal
TTITLE0=Ain't Goin' No Place
TTITLE1=That Old Feeling
TTITLE2=Baby  (Is What He Calls Me)
TTITLE3=Waiting For The Train To Come In
TTITLE4=I'm Glad I Waited For You
TTITLE5=I Don't Know Enough About You
TTITLE6=Somebody Loves Me
TTITLE7=It's All Over Now
TTITLE8=You Can Depend On Me
TTITLE9=A Nightinagle Can Sing The Blues
TTITLE10=The Freedom Train
TTITLE11=When Irish Eyes Are Smilling
TTITLE12=Linger In My Arms A Little Longer, Baby
TTITLE13=Everything's Moving Too Fast
TTITLE14=It's A Good Day
TTITLE15=Chi-Baba, Chi-Baba (My Bambino Go To Sleep)
TTITLE16=Swing Low Sweet Chariot
TTITLE17=Somebody Loves Me
TTITLE18=There'll Be Some Changes Made
TTITLE19=Sugar
EXTD=
EXTT0=
EXTT1=
EXTT2=
EXTT3=
EXTT4=
EXTT5=
EXTT6=
EXTT7=
EXTT8=
EXTT9=
EXTT10=
EXTT11=
EXTT12=
EXTT13=
EXTT14=
EXTT15=
EXTT16=
EXTT17=
EXTT18=
EXTT19=
PLAYORDER=
